# xmcd CD database file
#
# Track frame offsets:
#	150
#	20809
#	40071
#	68442
#	90101
#	107547
#	130399
#	145872
#	163589
#	193306
#
# Disc length: 2871 seconds
#
# Revision: 0
# Processed by: cddbd v1.4PL0 Copyright (c) Steve Scherf et al.
# Submitted via: CDex 1.50
#
DISCID=7f0b350a
DTITLE=Tim Mac Brian - Die Keltische Quelle
DYEAR=2000
DGENRE=New Age
TTITLE0=Chant De Depart
TTITLE1=Vers La Forèt
TTITLE2=Le Chemin
TTITLE3=Un Monde Nouvou
TTITLE4=Le Plateau Des Fèes
TTITLE5=La Source Des Celtes
TTITLE6=L' Arbre Des Druides
TTITLE7=Contes Et Légendes
TTITLE8=Le Souffle Du Temps
TTITLE9=L' Océan Des Secrets
EXTD=YEAR: 2000
EXTT0=
EXTT1=
EXTT2=
EXTT3=
EXTT4=
EXTT5=
EXTT6=
EXTT7=
EXTT8=
EXTT9=
PLAYORDER=
